<svg id="favorietensymbool" xmlns="http://www.w3.org/2000/svg" width="57.569" height="51.852" viewBox="0 0 57.569 51.852">
  <g id="Union_1" data-name="Union 1" transform="translate(1973.431 -16.569)" fill="none">
    <path d="M-1968.493,44.928a16.439,16.439,0,0,1,0-23.493,17.04,17.04,0,0,1,23.846,0,17.04,17.04,0,0,1,23.846,0,16.439,16.439,0,0,1,0,23.493l-23.846,23.493Z" stroke="none"/>
    <path d="M -1944.647094726563 67.01720428466797 L -1921.503173828125 44.21536254882813 C -1918.510620117188 41.26690292358398 -1916.862670898438 37.34793472290039 -1916.86279296875 33.18037414550781 C -1916.862915039063 29.01314353942871 -1918.510864257813 25.09466361999512 -1921.503173828125 22.1467342376709 C -1924.499755859375 19.19445419311523 -1928.484741210938 17.56855392456055 -1932.724243164063 17.56855392456055 C -1936.963745117188 17.56855392456055 -1940.948852539063 19.19444274902344 -1943.9453125 22.1467342376709 L -1944.647094726563 22.83822441101074 L -1945.348876953125 22.1467342376709 C -1948.345336914063 19.19444274902344 -1952.330444335938 17.56855392456055 -1956.569946289063 17.56855392456055 C -1960.809448242188 17.56855392456055 -1964.794555664063 19.19444274902344 -1967.791015625 22.14676284790039 C -1970.783325195313 25.09466361999512 -1972.431274414063 29.01314353942871 -1972.431396484375 33.18037414550781 C -1972.431518554688 37.34793472290039 -1970.783569335938 41.26690292358398 -1967.791015625 44.21535491943359 L -1944.647094726563 67.01720428466797 M -1944.647094726563 68.42100524902344 L -1968.492797851563 44.92770385742188 C -1975.07763671875 38.43990325927734 -1975.07763671875 27.92149353027344 -1968.492797851563 21.43439292907715 C -1965.200317382813 18.19049835205078 -1960.885131835938 16.56855010986328 -1956.569946289063 16.56855010986328 C -1952.254760742188 16.56855010986328 -1947.939575195313 18.19049835205078 -1944.647094726563 21.43439292907715 C -1941.354614257813 18.19049835205078 -1937.039428710938 16.56855010986328 -1932.724243164063 16.56855010986328 C -1928.409057617188 16.56855010986328 -1924.093872070313 18.19049835205078 -1920.801391601563 21.43439292907715 C -1914.216552734375 27.92149353027344 -1914.216552734375 38.43990325927734 -1920.801391601563 44.92770385742188 L -1944.647094726563 68.42100524902344 Z" stroke="none" fill="#cedef2"/>
  </g>
</svg>
