<svg id="favorietensymbool" xmlns="http://www.w3.org/2000/svg" width="57.569" height="51.852" viewBox="0 0 57.569 51.852">
  <g id="Union_1" data-name="Union 1" transform="translate(0 0)" fill="#cedef2">
    <path d="M 28.78433227539063 51.15055084228516 L 5.289542198181152 28.00297355651855 C 2.200852394104004 24.95980262756348 0.4998822808265686 20.91433334350586 0.5000022649765015 16.61180305480957 C 0.5001222491264343 12.30961322784424 2.201072216033936 8.264643669128418 5.28953218460083 5.222033500671387 C 8.380132675170898 2.176973342895508 12.48979187011719 0.500003457069397 16.86148262023926 0.500003457069397 C 21.2331714630127 0.500003457069397 25.34283256530762 2.176973342895508 28.43341255187988 5.222013473510742 L 28.78433227539063 5.567763328552246 L 29.13525199890137 5.222013473510742 C 32.22583389282227 2.176973342895508 36.33548355102539 0.500003457069397 40.7071418762207 0.500003457069397 C 45.07880401611328 0.500003457069397 49.18847274780273 2.176973342895508 52.27911376953125 5.222013473510742 C 55.36759185791016 8.264643669128418 57.06854248046875 12.30961322784424 57.06866073608398 16.61180305480957 C 57.06878280639648 20.91433334350586 55.36781311035156 24.95980262756348 52.27911376953125 28.00298309326172 L 28.78433227539063 51.15055084228516 Z" stroke="none"/>
    <path d="M 28.78433227539063 50.44865417480469 L 51.92819213867188 27.64681434631348 C 54.92076110839844 24.6983528137207 56.56877136230469 20.77938270568848 56.56866073608398 16.61182403564453 C 56.56855392456055 12.44459342956543 54.9205436706543 8.526113510131836 51.92820358276367 5.578183650970459 C 48.93169403076172 2.625903367996216 44.9466438293457 1.000003457069397 40.7071418762207 1.000003457069397 C 36.46764373779297 1.000003457069397 32.48262405395508 2.625893354415894 29.48617172241211 5.578183650970459 L 28.78433227539063 6.269673347473145 L 28.08249282836914 5.578183650970459 C 25.0860424041748 2.625893354415894 21.10101318359375 1.000003457069397 16.86148262023926 1.000003457069397 C 12.62195205688477 1.000003457069397 8.636921882629395 2.625893354415894 5.640432357788086 5.578213214874268 C 2.648122310638428 8.526113510131836 1.000112295150757 12.44459342956543 1.000002264976501 16.61182403564453 C 0.9998922944068909 20.77938270568848 2.647902250289917 24.6983528137207 5.64045238494873 27.64680290222168 L 28.78433227539063 50.44865417480469 M 28.78433227539063 51.85245513916016 L 4.938632488250732 28.35915374755859 C -1.646207690238953 21.87135314941406 -1.646207690238953 11.35294342041016 4.938632488250732 4.865843296051025 C 8.231052398681641 1.621948480606079 12.54626750946045 9.484863312536618e-07 16.86148262023926 9.484863312536618e-07 C 21.17669677734375 9.484863312536618e-07 25.49191284179688 1.621948480606079 28.78433227539063 4.865843296051025 C 32.07675170898438 1.621948480606079 36.39193725585938 9.484863312536618e-07 40.70713806152344 9.484863312536618e-07 C 45.0223388671875 9.484863312536618e-07 49.33755111694336 1.621948480606079 52.63003158569336 4.865843296051025 C 59.21487045288086 11.35294342041016 59.21487045288086 21.87135314941406 52.63003158569336 28.35915374755859 L 28.78433227539063 51.85245513916016 Z" stroke="none" fill="#cedef2"/>
  </g>
</svg>
