<svg xmlns="http://www.w3.org/2000/svg" width="227.239" height="54.608" viewBox="0 0 227.239 54.608">
  <g id="Group_43" data-name="Group 43" transform="translate(0)">
    <path id="Path_179" data-name="Path 179" d="M1125.133,386.012s-16.454,27.847-13.887,40.79c2.791,14.084,27.264,17.438,30.076-1.306C1143.265,412.534,1131.7,395.684,1125.133,386.012Z" transform="translate(-1012.736 -383.864)" fill="blue"/>
    <path id="Path_180" data-name="Path 180" d="M1165.89,388.623s-29.162,16.524-54.68,12.152c-13.687-2.347-25.032-21.633-37.321-13.887-15.61,9.839.608,30.96,20.831,33.849C1137.248,426.813,1165.89,388.623,1165.89,388.623Z" transform="translate(-1067.652 -385.065)" fill="blue"/>
    <path id="Path_181" data-name="Path 181" d="M1124.541,388.623s29.16,16.524,54.677,12.152c13.687-2.347,25.033-21.633,37.321-13.887,15.611,9.839-.605,30.96-20.83,33.849C1153.181,426.813,1124.541,388.623,1124.541,388.623Z" transform="translate(-995.538 -385.065)" fill="blue"/>
  </g>
</svg>
